REM DIRINDEX 1\2,1\3
REM DIRNAME folder01,folder02,folder03
TITLE ""
FILE "CD2Track37.mp3" MP3
  TRACK 01 AUDIO
    TITLE "0:"
    INDEX 01 00:00:00
  TRACK 02 AUDIO
    TITLE "2:cjc102_4042"
    INDEX 01 00:00:27
  TRACK 03 AUDIO
    TITLE "0:"
    INDEX 01 00:01:17
  TRACK 04 AUDIO
    TITLE "3:cjc102_4043"
    INDEX 01 00:01:19
  TRACK 05 AUDIO
    TITLE "0:"
    INDEX 01 00:02:59
  TRACK 06 AUDIO
    TITLE "3:cjc102_4044"
    INDEX 01 00:03:21
  TRACK 07 AUDIO
    TITLE "0:"
    INDEX 01 00:08:68
  TRACK 08 AUDIO
    TITLE "2:cjc102_4045"
    INDEX 01 00:08:70
  TRACK 09 AUDIO
    TITLE "0:"
    INDEX 01 00:10:12
  TRACK 10 AUDIO
    TITLE "3:cjc102_4046"
    INDEX 01 00:11:23
  TRACK 11 AUDIO
    TITLE "0:"
    INDEX 01 00:12:18
  TRACK 12 AUDIO
    TITLE "2:cjc102_4047"
    INDEX 01 00:12:20
  TRACK 13 AUDIO
    TITLE "0:"
    INDEX 01 00:13:32
  TRACK 14 AUDIO
    TITLE "3:cjc102_4048"
    INDEX 01 00:14:04
  TRACK 15 AUDIO
    TITLE "0:"
    INDEX 01 00:14:60
  TRACK 16 AUDIO
    TITLE "2:cjc102_4049"
    INDEX 01 00:14:64
  TRACK 17 AUDIO
    TITLE "0:"
    INDEX 01 00:15:74
  TRACK 18 AUDIO
    TITLE "3:cjc102_4050"
    INDEX 01 00:16:57
  TRACK 19 AUDIO
    TITLE "0:"
    INDEX 01 00:17:57
  TRACK 20 AUDIO
    TITLE "2:cjc102_4051"
    INDEX 01 00:17:70
  TRACK 21 AUDIO
    TITLE "0:"
    INDEX 01 00:19:07
  TRACK 22 AUDIO
    TITLE "3:cjc102_4052"
    INDEX 01 00:19:67
  TRACK 23 AUDIO
    TITLE "0:"
    INDEX 01 00:20:63
  TRACK 24 AUDIO
    TITLE "2:cjc102_4053"
    INDEX 01 00:20:65
  TRACK 25 AUDIO
    TITLE "0:"
    INDEX 01 00:22:01
  TRACK 26 AUDIO
    TITLE "3:cjc102_4054"
    INDEX 01 00:23:08
  TRACK 27 AUDIO
    TITLE "0:"
    INDEX 01 00:23:63
  TRACK 28 AUDIO
    TITLE "2:cjc102_4055"
    INDEX 01 00:24:25
  TRACK 29 AUDIO
    TITLE "0:"
    INDEX 01 00:25:56
  TRACK 30 AUDIO
    TITLE "3:cjc102_4056"
    INDEX 01 00:26:56
  TRACK 31 AUDIO
    TITLE "0:"
    INDEX 01 00:27:53
  TRACK 32 AUDIO
    TITLE "2:cjc102_4057"
    INDEX 01 00:27:61
  TRACK 33 AUDIO
    TITLE "0:"
    INDEX 01 00:28:64
  TRACK 34 AUDIO
    TITLE "3:cjc102_4058"
    INDEX 01 00:30:08
  TRACK 35 AUDIO
    TITLE "0:"
    INDEX 01 00:31:04
  TRACK 36 AUDIO
    TITLE "2:cjc102_4059"
    INDEX 01 00:31:26
  TRACK 37 AUDIO
    TITLE "0:"
    INDEX 01 00:32:39
  TRACK 38 AUDIO
    TITLE "3:cjc102_4060"
    INDEX 01 00:33:58
  TRACK 39 AUDIO
    TITLE "0:"
    INDEX 01 00:34:55
  TRACK 40 AUDIO
    TITLE "2:cjc102_4061"
    INDEX 01 00:35:02
  TRACK 41 AUDIO
    TITLE "0:"
    INDEX 01 00:36:15
  TRACK 42 AUDIO
    TITLE "3:cjc102_4062"
    INDEX 01 00:37:54
  TRACK 43 AUDIO
    TITLE "0:"
    INDEX 01 00:38:47
  TRACK 44 AUDIO
    TITLE "2:cjc102_4063"
    INDEX 01 00:39:45
  TRACK 45 AUDIO
    TITLE "0:"
    INDEX 01 00:40:66
  TRACK 46 AUDIO
    TITLE "3:cjc102_4064"
    INDEX 01 00:41:53
  TRACK 47 AUDIO
    TITLE "0:"
    INDEX 01 00:42:49
  TRACK 48 AUDIO
    TITLE "2:cjc102_4065"
    INDEX 01 00:42:74
  TRACK 49 AUDIO
    TITLE "0:"
    INDEX 01 00:44:09
  TRACK 50 AUDIO
    TITLE "3:cjc102_4066"
    INDEX 01 00:45:14
  TRACK 51 AUDIO
    TITLE "0:"
    INDEX 01 00:46:33
  TRACK 52 AUDIO
    TITLE "2:cjc102_4067"
    INDEX 01 00:46:37
  TRACK 53 AUDIO
    TITLE "0:"
    INDEX 01 00:47:54
  TRACK 54 AUDIO
    TITLE "3:cjc102_4068"
    INDEX 01 00:48:06
  TRACK 55 AUDIO
    TITLE "0:"
    INDEX 01 00:49:18
  TRACK 56 AUDIO
    TITLE "2:cjc102_4069"
    INDEX 01 00:49:55
  TRACK 57 AUDIO
    TITLE "0:"
    INDEX 01 00:51:01
  TRACK 58 AUDIO
    TITLE "3:cjc102_4070"
    INDEX 01 00:51:32
  TRACK 59 AUDIO
    TITLE "0:"
    INDEX 01 00:52:39
  TRACK 60 AUDIO
    TITLE "2:cjc102_4071"
    INDEX 01 00:52:47
  TRACK 61 AUDIO
    TITLE "0:"
    INDEX 01 00:53:64
  TRACK 62 AUDIO
    TITLE "3:cjc102_4072"
    INDEX 01 00:54:17
  TRACK 63 AUDIO
    TITLE "0:"
    INDEX 01 00:55:36
  TRACK 64 AUDIO
    TITLE "2:cjc102_4073"
    INDEX 01 00:55:67
  TRACK 65 AUDIO
    TITLE "0:"
    INDEX 01 00:57:07
  TRACK 66 AUDIO
    TITLE "3:cjc102_4074"
    INDEX 01 00:57:58
  TRACK 67 AUDIO
    TITLE "0:"
    INDEX 01 00:58:67
  TRACK 68 AUDIO
    TITLE "2:cjc102_4075"
    INDEX 01 00:59:16
  TRACK 69 AUDIO
    TITLE "0:"
    INDEX 01 01:00:37
  TRACK 70 AUDIO
    TITLE "3:cjc102_4076"
    INDEX 01 01:01:19
  TRACK 71 AUDIO
    TITLE "0:"
    INDEX 01 01:02:30
  TRACK 72 AUDIO
    TITLE "2:cjc102_4077"
    INDEX 01 01:03:02
  TRACK 73 AUDIO
    TITLE "0:"
    INDEX 01 01:04:25
  TRACK 74 AUDIO
    TITLE "3:cjc102_4078"
    INDEX 01 01:06:55
  TRACK 75 AUDIO
    TITLE "0:"
    INDEX 01 01:08:01
  TRACK 76 AUDIO
    TITLE "2:cjc102_4079"
    INDEX 01 01:08:44
  TRACK 77 AUDIO
    TITLE "0:"
    INDEX 01 01:09:56
  TRACK 78 AUDIO
    TITLE "2:cjc102_4080"
    INDEX 01 01:10:30
  TRACK 79 AUDIO
    TITLE "0:"
    INDEX 01 01:11:51
  TRACK 80 AUDIO
    TITLE "3:cjc102_4081"
    INDEX 01 01:12:56
  TRACK 81 AUDIO
    TITLE "0:"
    INDEX 01 01:14:06
  TRACK 82 AUDIO
    TITLE "2:cjc102_4082"
    INDEX 01 01:14:51
  TRACK 83 AUDIO
    TITLE "0:"
    INDEX 01 01:15:60
  TRACK 84 AUDIO
    TITLE "2:cjc102_4083"
    INDEX 01 01:16:30
  TRACK 85 AUDIO
    TITLE "0:"
    INDEX 01 01:17:45
  TRACK 86 AUDIO
    TITLE "3:cjc102_4084"
    INDEX 01 01:18:56
  TRACK 87 AUDIO
    TITLE "0:"
    INDEX 01 01:20:04
  TRACK 88 AUDIO
    TITLE "2:cjc102_4085"
    INDEX 01 01:20:48
  TRACK 89 AUDIO
    TITLE "0:"
    INDEX 01 01:21:45
  TRACK 90 AUDIO
    TITLE "2:cjc102_4086"
    INDEX 01 01:22:27
  TRACK 91 AUDIO
    TITLE "0:"
    INDEX 01 01:23:50
  TRACK 92 AUDIO
    TITLE "3:cjc102_4087"
    INDEX 01 01:24:57
  TRACK 93 AUDIO
    TITLE "0:"
    INDEX 01 01:25:70
  TRACK 94 AUDIO
    TITLE "2:cjc102_4088"
    INDEX 01 01:26:15
  TRACK 95 AUDIO
    TITLE "0:"
    INDEX 01 01:27:34
  TRACK 96 AUDIO
    TITLE "2:cjc102_4089"
    INDEX 01 01:28:02
  TRACK 97 AUDIO
    TITLE "0:"
    INDEX 01 01:29:29
  TRACK 98 AUDIO
    TITLE "3:cjc102_4090"
    INDEX 01 01:30:17
  TRACK 99 AUDIO
    TITLE "0:"
    INDEX 01 01:31:45
  TRACK 100 AUDIO
    TITLE "2:cjc102_4091"
    INDEX 01 01:32:12
  TRACK 101 AUDIO
    TITLE "0:"
    INDEX 01 01:33:29
  TRACK 102 AUDIO
    TITLE "2:cjc102_4092"
    INDEX 01 01:33:64
  TRACK 103 AUDIO
    TITLE "0:"
    INDEX 01 01:35:10
  TRACK 104 AUDIO
    TITLE "3:cjc102_4093"
    INDEX 01 01:36:11
  TRACK 105 AUDIO
    TITLE "0:"
    INDEX 01 01:37:34
  TRACK 106 AUDIO
    TITLE "2:cjc102_4094"
    INDEX 01 01:37:54
  TRACK 107 AUDIO
    TITLE "0:"
    INDEX 01 01:38:67
  TRACK 108 AUDIO
    TITLE "2:cjc102_4095"
    INDEX 01 01:39:27
  TRACK 109 AUDIO
    TITLE "0:"
    INDEX 01 01:40:48
  TRACK 110 AUDIO
    TITLE "3:cjc102_4096"
    INDEX 01 01:42:41
  TRACK 111 AUDIO
    TITLE "0:"
    INDEX 01 01:43:68
  TRACK 112 AUDIO
    TITLE "2:cjc102_4097"
    INDEX 01 01:44:52
  TRACK 113 AUDIO
    TITLE "0:"
    INDEX 01 01:47:01
  TRACK 114 AUDIO
    TITLE "3:cjc102_4098"
    INDEX 01 01:48:34
  TRACK 115 AUDIO
    TITLE "0:"
    INDEX 01 01:49:65
  TRACK 116 AUDIO
    TITLE "2:cjc102_4099"
    INDEX 01 01:50:27
  TRACK 117 AUDIO
    TITLE "0:"
    INDEX 01 01:53:23
  TRACK 118 AUDIO
    TITLE "3:cjc102_4100"
    INDEX 01 01:54:72
  TRACK 119 AUDIO
    TITLE "0:"
    INDEX 01 01:56:18
  TRACK 120 AUDIO
    TITLE "2:cjc102_4101"
    INDEX 01 01:57:06
  TRACK 121 AUDIO
    TITLE "0:"
    INDEX 01 02:01:41
